<svg xmlns="http://www.w3.org/2000/svg" xmlns:xlink="http://www.w3.org/1999/xlink" width="750" zoomAndPan="magnify" viewBox="0 0 562.5 562.499982" height="750" preserveAspectRatio="xMidYMid meet" version="1.0"><defs><clipPath id="b059794750"><path d="M 0 166 L 396 166 L 396 562 L 0 562 Z M 0 166 " clip-rule="nonzero"/></clipPath><clipPath id="3a518d712a"><path d="M -175.675781 402.953125 L 159.085938 68.191406 L 493.84375 402.953125 L 159.085938 737.714844 Z M -175.675781 402.953125 " clip-rule="nonzero"/></clipPath><clipPath id="4810265e7f"><path d="M -175.675781 402.953125 L 159.085938 68.191406 L 493.84375 402.953125 L 159.085938 737.714844 Z M -175.675781 402.953125 " clip-rule="nonzero"/></clipPath><clipPath id="8530a77420"><path d="M 198 0 L 562 0 L 562 364 L 198 364 Z M 198 0 " clip-rule="nonzero"/></clipPath><clipPath id="4d2bf5edcb"><path d="M 123.753906 140.535156 L 421.464844 -157.179688 L 719.175781 140.535156 L 421.464844 438.246094 Z M 123.753906 140.535156 " clip-rule="nonzero"/></clipPath><clipPath id="282d8d1a02"><path d="M 570.320312 -8.320312 L 272.609375 -8.320312 L 347.035156 66.105469 L 198.179688 214.960938 L 347.035156 363.816406 L 495.894531 214.960938 L 570.320312 289.390625 Z M 570.320312 -8.320312 " clip-rule="nonzero"/></clipPath><clipPath id="2c3f0b43b0"><path d="M 281 56 L 507 56 L 507 282 L 281 282 Z M 281 56 " clip-rule="nonzero"/></clipPath><clipPath id="5f118d5206"><path d="M 281 222.21875 L 476.59375 26.625 L 536.203125 86.234375 L 340.609375 281.828125 Z M 281 222.21875 " clip-rule="nonzero"/></clipPath><clipPath id="708389f619"><path d="M 281 222.21875 L 446.757812 56.460938 L 506.367188 56.460938 L 506.367188 116.070312 L 340.609375 281.828125 L 340.609375 222.21875 Z M 281 222.21875 " clip-rule="nonzero"/></clipPath></defs><path fill="#ffffff" d="M 0 0 L 562 0 L 562 562 L 0 562 Z M 0 0 " fill-opacity="1" fill-rule="nonzero"/><path fill="#2a2a2d" d="M 0 0 L 562 0 L 562 562 L 0 562 Z M 0 0 " fill-opacity="1" fill-rule="nonzero"/><g clip-path="url(#b059794750)"><g clip-path="url(#3a518d712a)"><g clip-path="url(#4810265e7f)"><path fill="#38b6ff" d="M -8.316406 235.59375 C -11.054688 238.332031 -13.726562 241.136719 -16.328125 244.007812 C -18.929688 246.878906 -21.457031 249.808594 -23.914062 252.804688 C -26.371094 255.796875 -28.753906 258.851562 -31.0625 261.960938 C -33.367188 265.074219 -35.597656 268.238281 -37.75 271.460938 C -39.902344 274.679688 -41.972656 277.953125 -43.964844 281.273438 C -45.957031 284.597656 -47.867188 287.964844 -49.691406 291.382812 C -51.519531 294.796875 -53.257812 298.257812 -54.914062 301.757812 C -56.570312 305.261719 -58.140625 308.800781 -59.621094 312.378906 C -61.105469 315.957031 -62.5 319.570312 -63.804688 323.21875 C -65.109375 326.863281 -66.324219 330.542969 -67.449219 334.25 C -68.570312 337.953125 -69.605469 341.6875 -70.546875 345.445312 C -71.488281 349.203125 -72.335938 352.980469 -73.089844 356.777344 C -73.847656 360.578125 -74.507812 364.394531 -75.078125 368.226562 C -75.644531 372.054688 -76.121094 375.898438 -76.5 379.753906 C -76.878906 383.609375 -77.164062 387.472656 -77.355469 391.339844 C -77.542969 395.207031 -77.640625 399.078125 -77.640625 402.953125 C -77.640625 406.828125 -77.542969 410.699219 -77.355469 414.566406 C -77.164062 418.4375 -76.878906 422.296875 -76.5 426.152344 C -76.121094 430.007812 -75.644531 433.851562 -75.078125 437.683594 C -74.507812 441.511719 -73.847656 445.328125 -73.089844 449.128906 C -72.335938 452.925781 -71.488281 456.707031 -70.546875 460.460938 C -69.605469 464.21875 -68.570312 467.953125 -67.449219 471.660156 C -66.324219 475.367188 -65.109375 479.042969 -63.804688 482.6875 C -62.5 486.335938 -61.105469 489.949219 -59.621094 493.527344 C -58.140625 497.105469 -56.570312 500.648438 -54.914062 504.148438 C -53.257812 507.648438 -51.519531 511.109375 -49.691406 514.523438 C -47.867188 517.941406 -45.957031 521.308594 -43.964844 524.632812 C -41.972656 527.953125 -39.902344 531.226562 -37.75 534.445312 C -35.597656 537.667969 -33.367188 540.832031 -31.0625 543.945312 C -28.753906 547.054688 -26.371094 550.109375 -23.914062 553.101562 C -21.457031 556.097656 -18.929688 559.03125 -16.328125 561.898438 C -13.726562 564.769531 -11.054688 567.574219 -8.316406 570.3125 C -5.578125 573.050781 -2.773438 575.722656 0.0976562 578.324219 C 2.96875 580.925781 5.898438 583.453125 8.894531 585.910156 C 11.886719 588.367188 14.941406 590.75 18.050781 593.058594 C 21.164062 595.367188 24.328125 597.59375 27.550781 599.746094 C 30.769531 601.898438 34.042969 603.972656 37.363281 605.960938 C 40.6875 607.953125 44.054688 609.863281 47.472656 611.6875 C 50.886719 613.515625 54.347656 615.253906 57.847656 616.910156 C 61.351562 618.566406 64.890625 620.136719 68.46875 621.621094 C 72.046875 623.101562 75.660156 624.496094 79.308594 625.800781 C 82.953125 627.105469 86.632812 628.320312 90.339844 629.445312 C 94.042969 630.570312 97.777344 631.601562 101.535156 632.542969 C 105.292969 633.484375 109.070312 634.332031 112.867188 635.085938 C 116.667969 635.84375 120.484375 636.503906 124.316406 637.074219 C 128.148438 637.640625 131.988281 638.117188 135.84375 638.496094 C 139.699219 638.875 143.5625 639.160156 147.429688 639.351562 C 151.296875 639.539062 155.171875 639.636719 159.042969 639.636719 C 162.917969 639.636719 166.789062 639.539062 170.65625 639.351562 C 174.527344 639.160156 178.386719 638.875 182.242188 638.496094 C 186.097656 638.117188 189.941406 637.640625 193.773438 637.074219 C 197.601562 636.503906 201.417969 635.84375 205.21875 635.085938 C 209.015625 634.332031 212.796875 633.484375 216.550781 632.542969 C 220.308594 631.601562 224.042969 630.570312 227.75 629.445312 C 231.457031 628.320312 235.132812 627.105469 238.78125 625.800781 C 242.425781 624.496094 246.039062 623.101562 249.617188 621.621094 C 253.195312 620.136719 256.738281 618.566406 260.238281 616.910156 C 263.738281 615.253906 267.199219 613.515625 270.613281 611.6875 C 274.03125 609.863281 277.398438 607.953125 280.722656 605.960938 C 284.042969 603.972656 287.316406 601.898438 290.535156 599.746094 C 293.757812 597.59375 296.921875 595.367188 300.035156 593.058594 C 303.144531 590.75 306.199219 588.367188 309.191406 585.910156 C 312.1875 583.453125 315.121094 580.925781 317.988281 578.324219 C 320.859375 575.722656 323.664062 573.050781 326.402344 570.3125 C 329.140625 567.574219 331.8125 564.769531 334.414062 561.898438 C 337.015625 559.03125 339.542969 556.097656 342 553.101562 C 344.457031 550.109375 346.839844 547.054688 349.148438 543.945312 C 351.457031 540.832031 353.6875 537.667969 355.835938 534.445312 C 357.988281 531.226562 360.0625 527.953125 362.050781 524.632812 C 364.042969 521.308594 365.953125 517.941406 367.777344 514.523438 C 369.605469 511.109375 371.34375 507.648438 373 504.148438 C 374.65625 500.648438 376.226562 497.105469 377.710938 493.527344 C 379.191406 489.949219 380.585938 486.335938 381.890625 482.6875 C 383.195312 479.042969 384.410156 475.367188 385.535156 471.660156 C 386.660156 467.953125 387.691406 464.21875 388.632812 460.460938 C 389.574219 456.707031 390.421875 452.925781 391.179688 449.128906 C 391.933594 445.328125 392.59375 441.511719 393.164062 437.683594 C 393.730469 433.851562 394.207031 430.007812 394.585938 426.152344 C 394.964844 422.296875 395.25 418.4375 395.441406 414.566406 C 395.628906 410.699219 395.726562 406.828125 395.726562 402.953125 C 395.726562 399.078125 395.628906 395.207031 395.441406 391.339844 C 395.25 387.472656 394.964844 383.609375 394.585938 379.753906 C 394.207031 375.898438 393.730469 372.054688 393.164062 368.226562 C 392.59375 364.394531 391.933594 360.578125 391.179688 356.777344 C 390.421875 352.980469 389.574219 349.203125 388.632812 345.445312 C 387.691406 341.6875 386.660156 337.953125 385.535156 334.25 C 384.410156 330.542969 383.195312 326.863281 381.890625 323.21875 C 380.585938 319.570312 379.191406 315.957031 377.710938 312.378906 C 376.226562 308.800781 374.65625 305.261719 373 301.757812 C 371.34375 298.257812 369.605469 294.796875 367.777344 291.382812 C 365.953125 287.964844 364.042969 284.597656 362.050781 281.273438 C 360.0625 277.953125 357.988281 274.679688 355.835938 271.460938 C 353.6875 268.238281 351.457031 265.074219 349.148438 261.960938 C 346.839844 258.851562 344.457031 255.796875 342 252.804688 C 339.542969 249.808594 337.015625 246.878906 334.414062 244.007812 C 331.8125 241.136719 329.140625 238.332031 326.402344 235.59375 C 323.664062 232.855469 320.859375 230.183594 317.988281 227.582031 C 315.121094 224.980469 312.1875 222.453125 309.195312 219.996094 C 306.199219 217.535156 303.148438 215.152344 300.035156 212.847656 C 296.925781 210.539062 293.757812 208.308594 290.539062 206.15625 C 287.316406 204.003906 284.046875 201.933594 280.722656 199.941406 C 277.402344 197.949219 274.03125 196.039062 270.617188 194.214844 C 267.199219 192.386719 263.742188 190.648438 260.238281 188.992188 C 256.738281 187.335938 253.199219 185.765625 249.617188 184.28125 C 246.039062 182.800781 242.425781 181.40625 238.78125 180.101562 C 235.132812 178.796875 231.457031 177.582031 227.75 176.457031 C 224.042969 175.332031 220.3125 174.300781 216.554688 173.359375 C 212.796875 172.417969 209.019531 171.570312 205.21875 170.8125 C 201.417969 170.058594 197.605469 169.394531 193.773438 168.828125 C 189.941406 168.257812 186.097656 167.785156 182.242188 167.40625 C 178.386719 167.023438 174.527344 166.738281 170.65625 166.550781 C 166.789062 166.359375 162.917969 166.265625 159.042969 166.265625 C 155.171875 166.265625 151.296875 166.359375 147.429688 166.550781 C 143.5625 166.738281 139.699219 167.023438 135.84375 167.40625 C 131.988281 167.785156 128.144531 168.257812 124.3125 168.828125 C 120.484375 169.394531 116.667969 170.058594 112.867188 170.8125 C 109.070312 171.570312 105.289062 172.417969 101.535156 173.359375 C 97.777344 174.300781 94.042969 175.332031 90.335938 176.457031 C 86.628906 177.582031 82.953125 178.796875 79.304688 180.101562 C 75.660156 181.40625 72.046875 182.800781 68.46875 184.28125 C 64.890625 185.765625 61.347656 187.335938 57.847656 188.992188 C 54.347656 190.648438 50.886719 192.386719 47.472656 194.214844 C 44.054688 196.039062 40.6875 197.949219 37.363281 199.941406 C 34.039062 201.933594 30.769531 204.003906 27.550781 206.15625 C 24.328125 208.308594 21.164062 210.539062 18.050781 212.847656 C 14.941406 215.152344 11.886719 217.535156 8.894531 219.996094 C 5.898438 222.453125 2.96875 224.980469 0.0976562 227.582031 C -2.773438 230.183594 -5.578125 232.855469 -8.316406 235.59375 Z M 233.851562 423.875 L 233.851562 520.382812 C 233.851562 521.609375 233.824219 522.832031 233.761719 524.054688 C 233.703125 525.277344 233.613281 526.5 233.492188 527.714844 C 233.371094 528.933594 233.222656 530.148438 233.042969 531.359375 C 232.863281 532.570312 232.65625 533.777344 232.414062 534.980469 C 232.175781 536.179688 231.910156 537.375 231.609375 538.5625 C 231.3125 539.75 230.988281 540.929688 230.632812 542.101562 C 230.277344 543.273438 229.894531 544.433594 229.480469 545.585938 C 229.066406 546.738281 228.628906 547.882812 228.160156 549.011719 C 227.691406 550.144531 227.195312 551.261719 226.671875 552.371094 C 226.148438 553.476562 225.597656 554.570312 225.019531 555.648438 C 224.441406 556.730469 223.839844 557.792969 223.210938 558.84375 C 222.582031 559.894531 221.925781 560.929688 221.246094 561.945312 C 220.566406 562.964844 219.859375 563.964844 219.132812 564.949219 C 218.402344 565.929688 217.648438 566.898438 216.871094 567.84375 C 216.09375 568.789062 215.296875 569.714844 214.472656 570.625 C 213.652344 571.53125 212.808594 572.417969 211.941406 573.28125 C 211.078125 574.148438 210.191406 574.992188 209.28125 575.816406 C 208.375 576.636719 207.449219 577.4375 206.503906 578.210938 C 205.554688 578.988281 204.589844 579.742188 203.609375 580.472656 C 202.625 581.199219 201.625 581.90625 200.605469 582.585938 C 199.585938 583.265625 198.554688 583.921875 197.503906 584.550781 C 196.453125 585.179688 195.386719 585.785156 194.308594 586.359375 C 193.230469 586.9375 192.136719 587.488281 191.027344 588.011719 C 189.921875 588.535156 188.804688 589.03125 187.671875 589.5 C 186.539062 589.96875 185.398438 590.410156 184.246094 590.820312 C 183.09375 591.234375 181.929688 591.617188 180.757812 591.972656 C 179.589844 592.328125 178.410156 592.65625 177.222656 592.953125 C 176.03125 593.25 174.839844 593.515625 173.636719 593.757812 C 172.4375 593.996094 171.230469 594.203125 170.019531 594.382812 C 168.808594 594.5625 167.59375 594.714844 166.375 594.832031 C 165.15625 594.953125 163.9375 595.042969 162.714844 595.105469 C 161.492188 595.164062 160.269531 595.195312 159.042969 595.195312 C 157.820312 595.195312 156.59375 595.164062 155.371094 595.105469 C 154.148438 595.042969 152.929688 594.953125 151.710938 594.832031 C 150.492188 594.714844 149.277344 594.5625 148.066406 594.382812 C 146.855469 594.203125 145.648438 593.996094 144.449219 593.757812 C 143.246094 593.515625 142.054688 593.25 140.867188 592.953125 C 139.679688 592.65625 138.5 592.328125 137.328125 591.972656 C 136.15625 591.617188 134.992188 591.234375 133.839844 590.820312 C 132.6875 590.410156 131.546875 589.96875 130.414062 589.5 C 129.285156 589.03125 128.164062 588.535156 127.058594 588.011719 C 125.953125 587.488281 124.859375 586.9375 123.777344 586.359375 C 122.699219 585.785156 121.632812 585.179688 120.582031 584.550781 C 119.535156 583.921875 118.5 583.265625 117.480469 582.585938 C 116.464844 581.90625 115.460938 581.199219 114.480469 580.472656 C 113.496094 579.742188 112.53125 578.988281 111.585938 578.210938 C 110.636719 577.4375 109.710938 576.636719 108.804688 575.8125 C 107.898438 574.992188 107.011719 574.148438 106.144531 573.28125 C 105.277344 572.417969 104.433594 571.53125 103.613281 570.625 C 102.789062 569.714844 101.992188 568.789062 101.214844 567.84375 C 100.4375 566.898438 99.683594 565.929688 98.957031 564.949219 C 98.226562 563.964844 97.523438 562.964844 96.839844 561.945312 C 96.160156 560.929688 95.507812 559.894531 94.878906 558.84375 C 94.246094 557.792969 93.644531 556.730469 93.066406 555.648438 C 92.488281 554.570312 91.941406 553.476562 91.417969 552.371094 C 90.894531 551.261719 90.398438 550.144531 89.929688 549.011719 C 89.460938 547.882812 89.019531 546.738281 88.605469 545.585938 C 88.195312 544.433594 87.808594 543.273438 87.453125 542.101562 C 87.097656 540.929688 86.773438 539.75 86.476562 538.5625 C 86.179688 537.375 85.910156 536.179688 85.671875 534.980469 C 85.433594 533.777344 85.222656 532.570312 85.042969 531.359375 C 84.863281 530.148438 84.714844 528.933594 84.59375 527.714844 C 84.472656 526.5 84.382812 525.277344 84.324219 524.054688 C 84.265625 522.832031 84.234375 521.609375 84.234375 520.382812 C 84.234375 520.382812 84.34375 420.078125 84.511719 418.351562 C 87.429688 424.339844 91.035156 429.882812 95.335938 434.976562 C 101.691406 442.667969 109.207031 448.992188 117.871094 453.941406 C 121.800781 456.191406 125.890625 458.089844 130.144531 459.632812 L 130.144531 520.886719 C 130.160156 522.789062 130.359375 524.667969 130.742188 526.53125 C 131.121094 528.394531 131.679688 530.203125 132.410156 531.957031 C 133.140625 533.714844 134.035156 535.382812 135.089844 536.964844 C 136.144531 538.542969 137.34375 540.011719 138.679688 541.359375 C 139.695312 542.339844 140.773438 543.242188 141.917969 544.066406 C 143.066406 544.886719 144.261719 545.625 145.515625 546.273438 C 146.765625 546.921875 148.058594 547.476562 149.394531 547.933594 C 150.726562 548.394531 152.085938 548.757812 153.46875 549.019531 C 154.855469 549.28125 156.253906 549.445312 157.660156 549.503906 C 159.070312 549.5625 160.476562 549.519531 161.878906 549.375 C 163.28125 549.226562 164.664062 548.980469 166.03125 548.636719 C 167.398438 548.289062 168.734375 547.84375 170.035156 547.304688 C 171.339844 546.761719 172.59375 546.128906 173.804688 545.40625 C 175.015625 544.679688 176.164062 543.871094 177.257812 542.980469 C 178.351562 542.089844 179.371094 541.125 180.324219 540.082031 C 181.277344 539.042969 182.148438 537.9375 182.9375 536.773438 C 183.730469 535.605469 184.433594 534.386719 185.046875 533.117188 C 185.660156 531.847656 186.179688 530.539062 186.601562 529.195312 C 187.027344 527.851562 187.347656 526.480469 187.574219 525.089844 C 187.796875 523.695312 187.921875 522.296875 187.941406 520.886719 C 187.941406 520.886719 187.996094 422.199219 187.828125 420.917969 C 187.777344 420.324219 187.710938 419.734375 187.621094 419.148438 C 187.535156 418.558594 187.429688 417.976562 187.304688 417.394531 C 187.183594 416.8125 187.042969 416.234375 186.882812 415.664062 C 186.722656 415.089844 186.546875 414.523438 186.355469 413.960938 C 186.160156 413.402344 185.949219 412.847656 185.71875 412.296875 C 185.492188 411.75 185.246094 411.207031 184.984375 410.675781 C 184.726562 410.140625 184.445312 409.617188 184.152344 409.101562 C 183.859375 408.582031 183.550781 408.078125 183.222656 407.578125 C 182.898438 407.082031 182.558594 406.59375 182.203125 406.117188 C 181.847656 405.644531 181.480469 405.179688 181.09375 404.722656 C 180.710938 404.269531 180.3125 403.828125 179.902344 403.402344 C 179.492188 402.972656 179.066406 402.554688 178.632812 402.152344 C 178.195312 401.75 177.746094 401.363281 177.285156 400.988281 C 176.824219 400.613281 176.351562 400.25 175.871094 399.90625 C 175.386719 399.558594 174.894531 399.226562 174.390625 398.914062 C 173.886719 398.597656 173.375 398.296875 172.851562 398.011719 C 172.332031 397.730469 171.800781 397.460938 171.261719 397.210938 C 170.722656 396.960938 170.179688 396.726562 169.625 396.507812 C 169.074219 396.289062 168.515625 396.089844 167.949219 395.90625 C 167.382812 395.722656 166.8125 395.558594 166.238281 395.410156 C 165.664062 395.261719 165.082031 395.132812 164.5 395.019531 C 163.917969 394.90625 163.328125 394.8125 162.742188 394.738281 C 162.152344 394.660156 161.558594 394.601562 160.96875 394.5625 C 160.375 394.523438 159.78125 394.503906 159.1875 394.5 C 158.59375 394.496094 158 394.511719 157.40625 394.546875 C 156.8125 394.578125 156.222656 394.632812 155.632812 394.703125 C 155.042969 394.773438 154.453125 394.859375 153.871094 394.964844 C 153.285156 395.074219 152.703125 395.195312 152.128906 395.339844 C 151.550781 395.480469 150.980469 395.640625 150.414062 395.820312 C 149.84375 395.996094 149.285156 396.191406 148.730469 396.402344 C 148.175781 396.613281 147.625 396.84375 147.085938 397.089844 C 146.542969 397.335938 146.011719 397.597656 145.488281 397.875 C 144.386719 396.90625 143.402344 395.832031 142.527344 394.652344 C 141.65625 393.472656 140.917969 392.210938 140.3125 390.875 C 139.703125 389.539062 139.246094 388.152344 138.933594 386.71875 C 138.621094 385.285156 138.464844 383.835938 138.457031 382.367188 C 138.457031 374.445312 138.402344 359.886719 138.457031 352.019531 C 140.847656 351.324219 143.269531 350.75 145.714844 350.300781 C 148.164062 349.847656 150.628906 349.519531 153.109375 349.316406 C 155.589844 349.113281 158.074219 349.035156 160.5625 349.082031 C 163.054688 349.128906 165.535156 349.300781 168.003906 349.597656 C 170.476562 349.894531 172.925781 350.3125 175.355469 350.855469 C 177.785156 351.398438 180.183594 352.0625 182.542969 352.847656 C 184.90625 353.632812 187.222656 354.53125 189.496094 355.550781 C 191.769531 356.566406 193.984375 357.699219 196.140625 358.9375 C 198.988281 360.570312 201.714844 362.382812 204.324219 364.375 C 206.929688 366.363281 209.398438 368.515625 211.722656 370.832031 C 214.050781 373.144531 216.214844 375.601562 218.21875 378.199219 C 220.222656 380.796875 222.050781 383.515625 223.695312 386.351562 C 225.34375 389.191406 226.800781 392.125 228.0625 395.152344 C 229.328125 398.179688 230.386719 401.277344 231.246094 404.445312 C 232.101562 407.613281 232.75 410.820312 233.1875 414.074219 C 233.621094 417.324219 233.84375 420.59375 233.851562 423.875 Z M 233.796875 285.355469 C 233.796875 285.355469 233.742188 385.605469 233.574219 387.332031 C 230.667969 381.367188 227.082031 375.84375 222.808594 370.765625 C 218.195312 365.171875 212.933594 360.277344 207.019531 356.085938 C 201.105469 351.894531 194.746094 348.550781 187.941406 346.050781 L 187.941406 284.796875 C 187.929688 283.859375 187.875 282.921875 187.773438 281.988281 C 187.671875 281.050781 187.527344 280.125 187.332031 279.207031 C 187.140625 278.285156 186.90625 277.378906 186.625 276.480469 C 186.34375 275.582031 186.019531 274.703125 185.652344 273.835938 C 185.285156 272.972656 184.878906 272.125 184.429688 271.300781 C 183.980469 270.476562 183.492188 269.675781 182.964844 268.898438 C 182.4375 268.121094 181.871094 267.371094 181.269531 266.648438 C 180.671875 265.925781 180.035156 265.234375 179.367188 264.570312 C 178.699219 263.910156 178 263.285156 177.269531 262.691406 C 176.542969 262.101562 175.785156 261.542969 175 261.027344 C 174.21875 260.507812 173.410156 260.027344 172.578125 259.589844 C 171.75 259.148438 170.898438 258.75 170.03125 258.394531 C 169.160156 258.039062 168.277344 257.722656 167.375 257.453125 C 166.476562 257.183594 165.566406 256.957031 164.640625 256.777344 C 163.71875 256.59375 162.792969 256.460938 161.855469 256.367188 C 160.921875 256.277344 159.984375 256.234375 159.042969 256.234375 C 158.105469 256.234375 157.167969 256.28125 156.230469 256.375 C 155.296875 256.464844 154.367188 256.605469 153.445312 256.789062 C 152.523438 256.96875 151.613281 257.199219 150.714844 257.46875 C 149.816406 257.742188 148.929688 258.058594 148.0625 258.414062 C 147.191406 258.773438 146.34375 259.171875 145.515625 259.613281 C 144.683594 260.054688 143.878906 260.535156 143.097656 261.058594 C 142.3125 261.578125 141.558594 262.132812 140.828125 262.726562 C 140.101562 263.320312 139.402344 263.949219 138.734375 264.609375 C 138.070312 265.273438 137.4375 265.964844 136.835938 266.691406 C 136.238281 267.414062 135.675781 268.164062 135.148438 268.941406 C 134.621094 269.722656 134.136719 270.523438 133.6875 271.351562 C 133.238281 272.175781 132.832031 273.023438 132.46875 273.890625 C 132.101562 274.753906 131.78125 275.636719 131.503906 276.535156 C 131.222656 277.429688 130.988281 278.339844 130.796875 279.261719 C 130.609375 280.179688 130.464844 281.109375 130.363281 282.042969 C 130.265625 282.976562 130.210938 283.914062 130.203125 284.851562 C 130.203125 307.167969 130.144531 360.777344 130.203125 382.367188 C 130.210938 382.984375 130.238281 383.601562 130.28125 384.21875 C 130.328125 384.832031 130.394531 385.445312 130.480469 386.058594 C 130.566406 386.667969 130.671875 387.277344 130.796875 387.882812 C 130.921875 388.488281 131.0625 389.085938 131.226562 389.683594 C 131.386719 390.277344 131.570312 390.867188 131.769531 391.449219 C 131.96875 392.035156 132.1875 392.613281 132.425781 393.183594 C 132.660156 393.753906 132.917969 394.3125 133.1875 394.867188 C 133.460938 395.421875 133.75 395.964844 134.058594 396.503906 C 134.367188 397.039062 134.6875 397.5625 135.03125 398.078125 C 135.371094 398.59375 135.726562 399.09375 136.101562 399.585938 C 136.472656 400.078125 136.859375 400.558594 137.265625 401.027344 C 137.667969 401.492188 138.085938 401.949219 138.515625 402.390625 C 138.949219 402.828125 139.394531 403.257812 139.855469 403.667969 C 140.3125 404.082031 140.785156 404.480469 141.269531 404.859375 C 141.753906 405.242188 142.25 405.609375 142.757812 405.960938 C 143.265625 406.3125 143.785156 406.644531 144.3125 406.964844 C 144.84375 407.28125 145.382812 407.582031 145.929688 407.867188 C 146.476562 408.148438 147.035156 408.414062 147.601562 408.664062 C 148.164062 408.910156 148.738281 409.140625 149.316406 409.351562 C 149.898438 409.5625 150.484375 409.757812 151.074219 409.929688 C 151.667969 410.105469 152.265625 410.261719 152.867188 410.398438 C 153.46875 410.535156 154.074219 410.652344 154.683594 410.75 C 155.292969 410.847656 155.90625 410.925781 156.519531 410.984375 C 157.136719 411.042969 157.75 411.082031 158.367188 411.101562 C 158.984375 411.121094 159.601562 411.121094 160.21875 411.101562 C 160.835938 411.082031 161.453125 411.042969 162.066406 410.980469 C 162.679688 410.921875 163.292969 410.84375 163.902344 410.746094 C 164.511719 410.648438 165.117188 410.53125 165.71875 410.394531 C 166.320312 410.257812 166.917969 410.105469 167.511719 409.929688 C 168.101562 409.753906 168.6875 409.5625 169.269531 409.351562 C 169.847656 409.136719 170.421875 408.910156 170.984375 408.660156 C 171.550781 408.414062 172.109375 408.148438 172.65625 407.863281 C 173.894531 408.992188 174.984375 410.25 175.929688 411.632812 C 176.878906 413.015625 177.652344 414.492188 178.257812 416.054688 C 178.863281 417.617188 179.28125 419.226562 179.511719 420.886719 C 179.746094 422.546875 179.78125 424.214844 179.628906 425.882812 L 179.683594 453.71875 C 177.164062 454.453125 174.609375 455.050781 172.027344 455.511719 C 169.441406 455.972656 166.839844 456.296875 164.222656 456.484375 C 161.601562 456.667969 158.980469 456.714844 156.359375 456.625 C 153.734375 456.53125 151.121094 456.300781 148.523438 455.933594 C 145.925781 455.5625 143.351562 455.058594 140.804688 454.414062 C 138.261719 453.773438 135.757812 452.996094 133.292969 452.089844 C 130.828125 451.183594 128.421875 450.144531 126.066406 448.980469 C 123.714844 447.820312 121.429688 446.535156 119.210938 445.128906 C 116.554688 443.445312 114.011719 441.601562 111.585938 439.601562 C 109.160156 437.597656 106.871094 435.453125 104.714844 433.164062 C 102.558594 430.875 100.554688 428.457031 98.703125 425.914062 C 96.847656 423.375 95.164062 420.726562 93.640625 417.972656 C 92.121094 415.21875 90.78125 412.382812 89.617188 409.460938 C 88.453125 406.539062 87.476562 403.554688 86.6875 400.507812 C 85.898438 397.464844 85.304688 394.382812 84.902344 391.261719 C 84.503906 388.144531 84.296875 385.011719 84.289062 381.867188 L 84.289062 285.355469 C 84.289062 284.132812 84.320312 282.910156 84.378906 281.6875 C 84.441406 280.464844 84.53125 279.246094 84.648438 278.027344 C 84.769531 276.8125 84.917969 275.597656 85.097656 274.386719 C 85.277344 273.175781 85.488281 271.972656 85.726562 270.773438 C 85.964844 269.570312 86.234375 268.378906 86.53125 267.191406 C 86.828125 266.003906 87.152344 264.828125 87.507812 263.65625 C 87.863281 262.484375 88.246094 261.324219 88.660156 260.171875 C 89.070312 259.019531 89.511719 257.878906 89.980469 256.75 C 90.449219 255.617188 90.945312 254.5 91.464844 253.394531 C 91.988281 252.289062 92.539062 251.195312 93.117188 250.117188 C 93.691406 249.039062 94.296875 247.972656 94.925781 246.925781 C 95.554688 245.875 96.207031 244.839844 96.886719 243.824219 C 97.566406 242.808594 98.273438 241.808594 99 240.824219 C 99.730469 239.84375 100.480469 238.878906 101.257812 237.933594 C 102.035156 236.984375 102.832031 236.058594 103.65625 235.152344 C 104.476562 234.246094 105.320312 233.363281 106.183594 232.496094 C 107.050781 231.632812 107.933594 230.789062 108.839844 229.964844 C 109.75 229.144531 110.675781 228.347656 111.621094 227.570312 C 112.566406 226.792969 113.53125 226.042969 114.511719 225.3125 C 115.496094 224.582031 116.496094 223.878906 117.511719 223.199219 C 118.53125 222.519531 119.5625 221.867188 120.613281 221.238281 C 121.660156 220.609375 122.726562 220.003906 123.804688 219.429688 C 124.882812 218.851562 125.976562 218.300781 127.082031 217.777344 C 128.1875 217.253906 129.304688 216.761719 130.4375 216.292969 C 131.566406 215.824219 132.707031 215.382812 133.859375 214.972656 C 135.011719 214.558594 136.171875 214.175781 137.34375 213.820312 C 138.515625 213.464844 139.691406 213.140625 140.878906 212.839844 C 142.066406 212.542969 143.261719 212.277344 144.460938 212.039062 C 145.660156 211.800781 146.863281 211.589844 148.074219 211.410156 C 149.285156 211.230469 150.5 211.082031 151.714844 210.960938 C 152.933594 210.839844 154.152344 210.75 155.375 210.691406 C 156.597656 210.632812 157.820312 210.601562 159.042969 210.601562 C 160.265625 210.601562 161.488281 210.632812 162.710938 210.691406 C 163.933594 210.75 165.152344 210.839844 166.371094 210.960938 C 167.589844 211.082031 168.800781 211.230469 170.011719 211.410156 C 171.222656 211.589844 172.425781 211.800781 173.628906 212.039062 C 174.828125 212.277344 176.019531 212.542969 177.207031 212.839844 C 178.394531 213.140625 179.574219 213.464844 180.742188 213.820312 C 181.914062 214.175781 183.074219 214.558594 184.226562 214.972656 C 185.378906 215.382812 186.519531 215.824219 187.652344 216.292969 C 188.78125 216.761719 189.898438 217.253906 191.003906 217.777344 C 192.109375 218.300781 193.203125 218.851562 194.28125 219.429688 C 195.359375 220.003906 196.425781 220.609375 197.476562 221.238281 C 198.523438 221.867188 199.558594 222.519531 200.574219 223.199219 C 201.589844 223.878906 202.589844 224.582031 203.574219 225.3125 C 204.558594 226.042969 205.519531 226.792969 206.46875 227.570312 C 207.414062 228.347656 208.339844 229.144531 209.246094 229.964844 C 210.152344 230.789062 211.039062 231.632812 211.902344 232.496094 C 212.769531 233.363281 213.609375 234.246094 214.433594 235.152344 C 215.253906 236.058594 216.054688 236.984375 216.828125 237.933594 C 217.605469 238.878906 218.359375 239.84375 219.085938 240.824219 C 219.816406 241.808594 220.519531 242.808594 221.199219 243.824219 C 221.878906 244.839844 222.53125 245.875 223.164062 246.925781 C 223.792969 247.972656 224.394531 249.039062 224.96875 250.117188 C 225.546875 251.195312 226.097656 252.289062 226.621094 253.394531 C 227.144531 254.5 227.640625 255.617188 228.105469 256.75 C 228.574219 257.878906 229.015625 259.019531 229.425781 260.171875 C 229.839844 261.324219 230.222656 262.484375 230.578125 263.65625 C 230.933594 264.828125 231.261719 266.003906 231.558594 267.191406 C 231.855469 268.378906 232.121094 269.570312 232.359375 270.773438 C 232.601562 271.972656 232.808594 273.175781 232.988281 274.386719 C 233.167969 275.597656 233.316406 276.8125 233.4375 278.027344 C 233.558594 279.246094 233.648438 280.464844 233.707031 281.6875 C 233.765625 282.910156 233.796875 284.132812 233.796875 285.355469 Z M 233.796875 285.355469 " fill-opacity="1" fill-rule="nonzero"/></g></g></g><g clip-path="url(#8530a77420)"><g clip-path="url(#4d2bf5edcb)"><g clip-path="url(#282d8d1a02)"><path fill="#38b6ff" d="M 123.753906 140.535156 L 421.464844 -157.179688 L 719.175781 140.535156 L 421.464844 438.246094 Z M 123.753906 140.535156 " fill-opacity="1" fill-rule="nonzero"/></g></g></g><g clip-path="url(#2c3f0b43b0)"><g clip-path="url(#5f118d5206)"><g clip-path="url(#708389f619)"><path fill="#2a2a2d" d="M 281 222.21875 L 476.59375 26.625 L 536.203125 86.234375 L 340.609375 281.828125 Z M 281 222.21875 " fill-opacity="1" fill-rule="nonzero"/></g></g></g></svg>