<svg class="svg-icon" style="width: 1em; height: 1em;vertical-align: middle;fill: currentColor;overflow: hidden;"
  viewBox="0 0 1024 1024" version="1.1" xmlns="http://www.w3.org/2000/svg">
  <path
    d="M981.333333 302.933333c0-25.6-10.666667-49.066667-27.733333-68.266666L789.333333 70.4c-38.4-38.4-98.133333-38.4-136.533333 0l-192 192c-38.4 38.4-38.4 98.133333 0 136.533333 17.066667 17.066667 42.666667 17.066667 59.733333 0s17.066667-42.666667 0-59.733333c-4.266667-4.266667-4.266667-10.666667 0-14.933333l192-192c6.4-4.266667 12.8-4.266667 17.066667-2.133334l164.266667 164.266667c2.133333 2.133333 2.133333 6.4 2.133333 8.533333 0 2.133333 0 4.266667-2.133333 8.533334l-192 192c-4.266667 4.266667-10.666667 4.266667-14.933334 0-17.066667-17.066667-42.666667-17.066667-59.733333 0s-17.066667 42.666667 0 59.733333c19.2 19.2 42.666667 27.733333 68.266667 27.733333 25.6 0 49.066667-8.533333 68.266666-27.733333l192-192c14.933333-19.2 25.6-42.666667 25.6-68.266667M70.4 789.333333l164.266667 164.266667c19.2 19.2 42.666667 27.733333 68.266666 27.733333 25.6 0 49.066667-8.533333 68.266667-27.733333l192-192c38.4-38.4 38.4-98.133333 0-136.533333-17.066667-17.066667-42.666667-17.066667-59.733333 0-17.066667 17.066667-17.066667 42.666667 0 59.733333 4.266667 4.266667 4.266667 10.666667 0 14.933333l-192 192c-4.266667 4.266667-10.666667 4.266667-14.933334 0l-164.266666-164.266666c-4.266667 0-4.266667-4.266667-4.266667-6.4 0-2.133333 0-4.266667 2.133333-8.533334l192-192c4.266667-4.266667 10.666667-4.266667 14.933334 0 17.066667 17.066667 42.666667 17.066667 59.733333 0 17.066667-17.066667 17.066667-42.666667 0-59.733333-38.4-38.4-98.133333-38.4-136.533333 0l-192 192c-19.2 19.2-27.733333 42.666667-27.733334 68.266667 2.133333 25.6 12.8 51.2 29.866667 68.266666"
    fill="#2F3CF4" />
  <path
    d="M676.266667 347.733333c-17.066667-17.066667-42.666667-17.066667-59.733334 0L347.733333 616.533333c-17.066667 17.066667-17.066667 42.666667 0 59.733334 8.533333 8.533333 19.2 12.8 29.866667 12.8s21.333333-4.266667 29.866667-12.8l268.8-268.8c17.066667-17.066667 17.066667-42.666667 0-59.733334"
    fill="#2F3CF4" />
</svg>