<svg class="svg-icon" style="width: 1em;height: 1em;vertical-align: middle;fill: currentColor;overflow: hidden;" viewBox="0 0 1024 1024" version="1.1" xmlns="http://www.w3.org/2000/svg"><path d="M512 0c282.770286 0 512 229.229714 512 512s-229.229714 512-512 512S0 794.770286 0 512 229.229714 0 512 0z m0 73.142857C269.641143 73.142857 73.142857 269.641143 73.142857 512c0 131.730286 58.038857 249.892571 149.942857 330.349714V713.142857c-0.365714-87.259429 61.001143-159.012571 138.934857-164.278857L369.371429 548.571429h290.377142c39.424-0.658286 77.421714 16.310857 105.398858 47.067428 25.965714 28.525714 41.216 66.742857 42.934857 106.971429l0.146285 9.325714 0.036572 123.794286A437.723429 437.723429 0 0 0 950.857143 512c0-242.358857-196.498286-438.857143-438.857143-438.857143z m3.657143 119.222857a146.285714 146.285714 0 1 1 0 292.571429 146.285714 146.285714 0 0 1 0-292.571429z" fill="#181818" /></svg>